<?xml version="1.0" encoding="UTF-8" standalone="no"?>
<!-- Created with Inkscape (http://www.inkscape.org/) -->

<svg
   xmlns:osb="http://www.openswatchbook.org/uri/2009/osb"
   xmlns:dc="http://purl.org/dc/elements/1.1/"
   xmlns:cc="http://creativecommons.org/ns#"
   xmlns:rdf="http://www.w3.org/1999/02/22-rdf-syntax-ns#"
   xmlns:svg="http://www.w3.org/2000/svg"
   xmlns="http://www.w3.org/2000/svg"
   xmlns:sodipodi="http://sodipodi.sourceforge.net/DTD/sodipodi-0.dtd"
   xmlns:inkscape="http://www.inkscape.org/namespaces/inkscape"
   width="210mm"
   height="297mm"
   viewBox="0 0 744.09448819 1052.3622047"
   id="svg2"
   version="1.1"
   inkscape:version="0.91 r13725"
   sodipodi:docname="Excemption Sigil.svg"
   inkscape:export-filename="D:\Projects\GGJ2016\SacredJanitor\Assets\Images\FFF Sigil.png"
   inkscape:export-xdpi="90"
   inkscape:export-ydpi="90">
  <defs
     id="defs4">
    <inkscape:perspective
       sodipodi:type="inkscape:persp3d"
       inkscape:vp_x="397.30067 : 1291.2571 : 1"
       inkscape:vp_y="822.70603 : -568.46704 : 0"
       inkscape:vp_z="-25.692522 : 679.08609 : 1"
       inkscape:persp3d-origin="41.506622 : 1084.8771 : 1"
       id="perspective4721" />
    <linearGradient
       id="linearGradient4547"
       osb:paint="solid">
      <stop
         style="stop-color:#000000;stop-opacity:1;"
         offset="0"
         id="stop4549" />
    </linearGradient>
    <linearGradient
       id="linearGradient4541"
       osb:paint="solid">
      <stop
         style="stop-color:#000000;stop-opacity:1;"
         offset="0"
         id="stop4543" />
    </linearGradient>
    <linearGradient
       id="linearGradient4535"
       osb:paint="solid">
      <stop
         style="stop-color:#000000;stop-opacity:1;"
         offset="0"
         id="stop4537" />
    </linearGradient>
  </defs>
  <sodipodi:namedview
     id="base"
     pagecolor="#ffffff"
     bordercolor="#666666"
     borderopacity="1.0"
     inkscape:pageopacity="0.0"
     inkscape:pageshadow="2"
     inkscape:zoom="2.8"
     inkscape:cx="330.60794"
     inkscape:cy="788.50079"
     inkscape:document-units="px"
     inkscape:current-layer="layer2"
     showgrid="false"
     inkscape:window-width="1920"
     inkscape:window-height="1057"
     inkscape:window-x="-8"
     inkscape:window-y="-8"
     inkscape:window-maximized="1"
     showguides="true" />
  <metadata
     id="metadata7">
    <rdf:RDF>
      <cc:Work
         rdf:about="">
        <dc:format>image/svg+xml</dc:format>
        <dc:type
           rdf:resource="http://purl.org/dc/dcmitype/StillImage" />
        <dc:title></dc:title>
      </cc:Work>
    </rdf:RDF>
  </metadata>
  <g
     inkscape:label="Circle"
     inkscape:groupmode="layer"
     id="layer1">
    <path
       style="fill:none;fill-opacity:1;stroke:#000000;stroke-width:2;stroke-linejoin:miter;stroke-miterlimit:4;stroke-dasharray:none;stroke-opacity:1"
       d="m 336.87891,113.94531 a 150,150 0 0 0 -150,150 150,150 0 0 0 150,150 150,150 0 0 0 150,-150 150,150 0 0 0 -150,-150 z"
       id="path4138"
       inkscape:connector-curvature="0"
       inkscape:export-filename="D:\Projects\GGJ2016\SacredJanitor\Assets\Images\Excemption Sigil.png"
       inkscape:export-xdpi="90"
       inkscape:export-ydpi="90" />
  </g>
  <g
     inkscape:groupmode="layer"
     id="layer2"
     inkscape:label="Sigil">
    <path
       style="fill:#434642;fill-opacity:1;fill-rule:evenodd;stroke:#000000;stroke-width:1px;stroke-linecap:butt;stroke-linejoin:miter;stroke-opacity:1"
       d="m 361.39175,189.29875 -2.19002,-43.07594 c 21.60324,25.66979 67.45551,45.12325 82.5283,46.71394 l 7.49857,24.36742 c -15.11386,2.08608 -76.44566,-16.7077 -87.83685,-28.00542 z"
       id="path4717"
       inkscape:connector-curvature="0"
       sodipodi:nodetypes="ccccc"
       inkscape:export-filename="D:\Projects\GGJ2016\SacredJanitor\Assets\Images\Excemption Sigil.png"
       inkscape:export-xdpi="90"
       inkscape:export-ydpi="90" />
    <path
       style="fill:#434642;fill-opacity:1;fill-rule:evenodd;stroke:#000000;stroke-width:0.81635725px;stroke-linecap:butt;stroke-linejoin:miter;stroke-opacity:1"
       d="m 242.82299,240.3996 24.89154,-4.40212 c 10.42812,31.94764 -18.83387,59.65743 -1.84809,85.27103 l -25.13732,0.0784 c -15.49956,-26.63598 20.0377,-59.99483 2.09387,-80.94731 z"
       id="path4717-7"
       inkscape:connector-curvature="0"
       sodipodi:nodetypes="ccccc"
       inkscape:export-filename="D:\Projects\GGJ2016\SacredJanitor\Assets\Images\Excemption Sigil.png"
       inkscape:export-xdpi="90"
       inkscape:export-ydpi="90" />
    <path
       style="fill:#434642;fill-opacity:1;fill-rule:evenodd;stroke:#000000;stroke-width:0.81635725px;stroke-linecap:butt;stroke-linejoin:miter;stroke-opacity:1"
       d="m 453.92639,254.71494 c -17.07188,33.37621 -32.76244,57.51457 -16.49094,82.41389 l -14.42304,12.5784 c -23.96195,-19.75976 -6.26921,-62.88283 4.95102,-80.59022 z"
       id="path4717-7-5"
       inkscape:connector-curvature="0"
       sodipodi:nodetypes="ccccc"
       inkscape:export-filename="D:\Projects\GGJ2016\SacredJanitor\Assets\Images\Excemption Sigil.png"
       inkscape:export-xdpi="90"
       inkscape:export-ydpi="90" />
    <path
       style="fill:#434642;fill-opacity:1;fill-rule:evenodd;stroke:#000000;stroke-width:0.91781205px;stroke-linecap:butt;stroke-linejoin:miter;stroke-opacity:1"
       d="m 331.9715,324.30075 -22.2354,-27.01339 c -6.97509,24.65095 -41.63626,55.75467 -55.7535,63.06944 l 6.34104,17.91872 c 16.24232,-5.1051 66.70162,-42.33196 71.64795,-53.97481 z"
       id="path4717-2"
       inkscape:connector-curvature="0"
       sodipodi:nodetypes="ccccc"
       inkscape:export-filename="D:\Projects\GGJ2016\SacredJanitor\Assets\Images\Excemption Sigil.png"
       inkscape:export-xdpi="90"
       inkscape:export-ydpi="90" />
    <path
       style="fill:#434642;fill-opacity:1;fill-rule:evenodd;stroke:#000000;stroke-width:0.69121832px;stroke-linecap:butt;stroke-linejoin:miter;stroke-opacity:1"
       d="m 266.7396,203.87312 c 15.77323,-25.17268 25.85923,-46.34166 49.0904,-39.41216 l 2.78701,-16.56746 c -22.80266,-15.29181 -44.9071,13.36376 -52.42059,28.63581 z"
       id="path4717-7-5-5"
       inkscape:connector-curvature="0"
       sodipodi:nodetypes="ccccc"
       inkscape:export-filename="D:\Projects\GGJ2016\SacredJanitor\Assets\Images\Excemption Sigil.png"
       inkscape:export-xdpi="90"
       inkscape:export-ydpi="90" />
    <path
       style="fill:#c2c1ba;fill-opacity:1;stroke:none;stroke-width:1;stroke-linecap:round;stroke-linejoin:round;stroke-miterlimit:4;stroke-dasharray:none;stroke-opacity:1"
       d="m 380.00001,215.21935 a 11.428574,11.428574 0 0 1 -11.42857,11.42856 11.428574,11.428574 0 0 1 -11.42857,-11.42856 11.428574,11.428574 0 0 1 11.42857,-11.42857 11.428574,11.428574 0 0 1 11.42857,11.42857 z"
       id="path4909"
       inkscape:connector-curvature="0"
       inkscape:export-filename="D:\Projects\GGJ2016\SacredJanitor\Assets\Images\Excemption Sigil.png"
       inkscape:export-xdpi="90"
       inkscape:export-ydpi="90" />
    <path
       style="fill:#c2c1ba;fill-opacity:1;stroke:none;stroke-width:1;stroke-linecap:round;stroke-linejoin:round;stroke-miterlimit:4;stroke-dasharray:none;stroke-opacity:1"
       d="m 237.85715,255.93364 a 7.1428572,7.1428572 0 0 1 -7.14286,7.14285 7.1428572,7.1428572 0 0 1 -7.14286,-7.14285 7.1428572,7.1428572 0 0 1 7.14286,-7.14286 7.1428572,7.1428572 0 0 1 7.14286,7.14286 z"
       id="path4909-9"
       inkscape:connector-curvature="0"
       inkscape:export-filename="D:\Projects\GGJ2016\SacredJanitor\Assets\Images\Excemption Sigil.png"
       inkscape:export-xdpi="90"
       inkscape:export-ydpi="90" />
    <path
       style="fill:#c2c1ba;fill-opacity:1;stroke:none;stroke-width:1;stroke-linecap:round;stroke-linejoin:round;stroke-miterlimit:4;stroke-dasharray:none;stroke-opacity:1"
       d="m 292.46866,304.53974 a 11.250002,11.250002 0 0 1 -14.93404,5.4863 11.250002,11.250002 0 0 1 -5.48632,-14.93402 11.250002,11.250002 0 0 1 14.93403,-5.48632 11.250002,11.250002 0 0 1 5.48633,14.93404 z"
       id="path4909-9-5"
       inkscape:connector-curvature="0"
       inkscape:export-filename="D:\Projects\GGJ2016\SacredJanitor\Assets\Images\Excemption Sigil.png"
       inkscape:export-xdpi="90"
       inkscape:export-ydpi="90" />
    <path
       style="fill:#c2c1ba;fill-opacity:1;stroke:none;stroke-width:1;stroke-linecap:round;stroke-linejoin:round;stroke-miterlimit:4;stroke-dasharray:none;stroke-opacity:1"
       d="m 455.71429,314.50507 a 8.5714293,8.5714293 0 0 1 -8.57143,8.57142 8.5714293,8.5714293 0 0 1 -8.57143,-8.57142 8.5714293,8.5714293 0 0 1 8.57143,-8.57143 8.5714293,8.5714293 0 0 1 8.57143,8.57143 z"
       id="path4909-9-5-2"
       inkscape:connector-curvature="0"
       inkscape:export-filename="D:\Projects\GGJ2016\SacredJanitor\Assets\Images\Excemption Sigil.png"
       inkscape:export-xdpi="90"
       inkscape:export-ydpi="90" />
    <path
       style="fill:#c2c1ba;fill-opacity:1;stroke:none;stroke-width:1;stroke-linecap:round;stroke-linejoin:round;stroke-miterlimit:4;stroke-dasharray:none;stroke-opacity:1"
       d="m 310.35714,180.04079 a 9.1071435,9.1071435 0 0 1 -9.10715,9.10713 9.1071435,9.1071435 0 0 1 -9.10714,-9.10713 9.1071435,9.1071435 0 0 1 9.10714,-9.10715 9.1071435,9.1071435 0 0 1 9.10715,9.10715 z"
       id="path4909-9-1"
       inkscape:connector-curvature="0"
       inkscape:export-filename="D:\Projects\GGJ2016\SacredJanitor\Assets\Images\Excemption Sigil.png"
       inkscape:export-xdpi="90"
       inkscape:export-ydpi="90" />
    <path
       style="fill:none;fill-rule:evenodd;stroke:#504d4d;stroke-width:0.7;stroke-linecap:butt;stroke-linejoin:miter;stroke-opacity:1;stroke-miterlimit:4;stroke-dasharray:none"
       d="m 383.34301,405.65516 c -9.26773,-24.67198 -15.16537,-60.123 7.16142,-91.981"
       id="path5287"
       inkscape:connector-curvature="0"
       sodipodi:nodetypes="cc"
       inkscape:export-filename="D:\Projects\GGJ2016\SacredJanitor\Assets\Images\Excemption Sigil.png"
       inkscape:export-xdpi="90"
       inkscape:export-ydpi="90" />
    <path
       style="fill:none;fill-rule:evenodd;stroke:#504d4d;stroke-width:0.7;stroke-linecap:butt;stroke-linejoin:miter;stroke-opacity:1;stroke-miterlimit:4;stroke-dasharray:none"
       d="m 312.74408,386.00297 c 16.7472,2.07742 38.40691,8.09358 48.91858,24.78705"
       id="path5287-3"
       inkscape:connector-curvature="0"
       sodipodi:nodetypes="cc"
       inkscape:export-filename="D:\Projects\GGJ2016\SacredJanitor\Assets\Images\Excemption Sigil.png"
       inkscape:export-xdpi="90"
       inkscape:export-ydpi="90" />
    <path
       sodipodi:type="spiral"
       style="fill:none;fill-rule:evenodd;stroke:#000000;stroke-width:0.69999999;stroke-linecap:butt;stroke-linejoin:miter;stroke-miterlimit:4;stroke-dasharray:none;stroke-opacity:1"
       id="path5321"
       sodipodi:cx="209.28572"
       sodipodi:cy="210.21935"
       sodipodi:expansion="3"
       sodipodi:revolution="2.0517104"
       sodipodi:radius="25.247309"
       sodipodi:argument="-5.191968"
       sodipodi:t0="0.19495927"
       d="m 209.11832,210.1358 c -0.14003,-0.3217 0.26397,-0.58963 0.52589,-0.63477 0.92943,-0.16016 1.52857,0.87685 1.5483,1.66992 0.0499,2.00628 -2.12312,3.14933 -3.89208,3.02642 -3.68362,-0.25594 -5.6408,-4.23607 -5.19197,-7.55994 0.82297,-6.09452 7.44935,-9.19235 13.04111,-8.16777 9.37247,1.71732 13.99346,11.99669 12.07668,20.70316 -1.61224,7.32316 -7.18001,13.22159 -14.051,15.99243"
       transform="matrix(0.58145207,-1.1962461,1.1957066,0.37890063,-61.082479,427.18375)"
       inkscape:export-filename="D:\Projects\GGJ2016\SacredJanitor\Assets\Images\Excemption Sigil.png"
       inkscape:export-xdpi="90"
       inkscape:export-ydpi="90" />
    <path
       sodipodi:type="spiral"
       style="fill:none;fill-rule:evenodd;stroke:#000000;stroke-width:0.69999999;stroke-linecap:butt;stroke-linejoin:miter;stroke-miterlimit:4;stroke-dasharray:none;stroke-opacity:1"
       id="path5321-0"
       sodipodi:cx="209.28572"
       sodipodi:cy="210.21935"
       sodipodi:expansion="3"
       sodipodi:revolution="2.0517104"
       sodipodi:radius="25.247309"
       sodipodi:argument="-5.191968"
       sodipodi:t0="0.19495927"
       d="m 209.11832,210.1358 c -0.14003,-0.3217 0.26397,-0.58963 0.52589,-0.63477 0.92943,-0.16016 1.52857,0.87685 1.5483,1.66992 0.0499,2.00628 -2.12312,3.14933 -3.89208,3.02642 -3.68362,-0.25594 -5.6408,-4.23607 -5.19197,-7.55994 0.82297,-6.09452 7.44935,-9.19235 13.04111,-8.16777 9.37247,1.71732 13.99346,11.99669 12.07668,20.70316 -1.61224,7.32316 -7.18001,13.22159 -14.051,15.99243"
       transform="matrix(0.43614976,-1.2565289,-1.11276,-0.57883087,516.8998,666.84855)"
       inkscape:export-filename="D:\Projects\GGJ2016\SacredJanitor\Assets\Images\Excemption Sigil.png"
       inkscape:export-xdpi="90"
       inkscape:export-ydpi="90" />
  </g>
</svg>
