<?xml version="1.0" encoding="UTF-8" standalone="no"?>
<!-- Created with Inkscape (http://www.inkscape.org/) -->

<svg
   xmlns:dc="http://purl.org/dc/elements/1.1/"
   xmlns:cc="http://creativecommons.org/ns#"
   xmlns:rdf="http://www.w3.org/1999/02/22-rdf-syntax-ns#"
   xmlns:svg="http://www.w3.org/2000/svg"
   xmlns="http://www.w3.org/2000/svg"
   xmlns:sodipodi="http://sodipodi.sourceforge.net/DTD/sodipodi-0.dtd"
   xmlns:inkscape="http://www.inkscape.org/namespaces/inkscape"
   width="210mm"
   height="297mm"
   viewBox="0 0 744.09448819 1052.3622047"
   id="svg2"
   version="1.1"
   inkscape:version="0.91 r13725"
   sodipodi:docname="FFF Sigil.svg">
  <defs
     id="defs4" />
  <sodipodi:namedview
     id="base"
     pagecolor="#ffffff"
     bordercolor="#666666"
     borderopacity="1.0"
     inkscape:pageopacity="0.0"
     inkscape:pageshadow="2"
     inkscape:zoom="1.979899"
     inkscape:cx="308.5772"
     inkscape:cy="755.13327"
     inkscape:document-units="px"
     inkscape:current-layer="layer2"
     showgrid="false"
     inkscape:window-width="1920"
     inkscape:window-height="1057"
     inkscape:window-x="-8"
     inkscape:window-y="-8"
     inkscape:window-maximized="1" />
  <metadata
     id="metadata7">
    <rdf:RDF>
      <cc:Work
         rdf:about="">
        <dc:format>image/svg+xml</dc:format>
        <dc:type
           rdf:resource="http://purl.org/dc/dcmitype/StillImage" />
        <dc:title></dc:title>
      </cc:Work>
    </rdf:RDF>
  </metadata>
  <g
     inkscape:label="Circle"
     inkscape:groupmode="layer"
     id="layer1"
     sodipodi:insensitive="true">
    <path
       style="fill:none;fill-opacity:1;stroke:#000000;stroke-width:2;stroke-linejoin:miter;stroke-miterlimit:4;stroke-dasharray:none;stroke-opacity:1"
       d="m 336.87891,113.94531 a 150,150 0 0 0 -150,150 150,150 0 0 0 150,150 150,150 0 0 0 150,-150 150,150 0 0 0 -150,-150 z"
       id="path4138"
       inkscape:connector-curvature="0" />
  </g>
  <g
     inkscape:groupmode="layer"
     id="layer2"
     inkscape:label="Sigil">
    <path
       style="fill:#000000;fill-opacity:1;fill-rule:evenodd;stroke:none;stroke-width:1px;stroke-linecap:butt;stroke-linejoin:miter;stroke-opacity:1"
       d="M 338.36133 121.86328 L 318.73438 266.64648 C 315.52008 272.71791 252.2704 257.20116 248.24805 251.91406 C 241.46234 244.05692 249.08398 162.26953 249.08398 162.26953 C 239.79827 189.76953 233.72266 263.4082 233.72266 263.4082 C 233.72266 263.4082 311.5413 293.36998 316.89844 301.94141 L 313.08203 411.90039 C 331.65782 414.30321 336.73383 413.91003 355.63086 412.72656 L 349.81836 302.29883 C 353.03265 298.01311 428.19141 280.13672 428.19141 280.13672 C 428.19141 280.13672 439.3005 208.47516 433.94336 154.18945 C 433.94336 154.18945 420.36076 258.12277 417.14648 265.26562 C 407.86076 274.19421 355.49805 278.85073 350.49805 272.7793 L 338.36133 121.86328 z "
       id="path4141" />
    <path
       style="fill:#000000;fill-opacity:1;fill-rule:evenodd;stroke:none;stroke-width:1px;stroke-linecap:butt;stroke-linejoin:miter;stroke-opacity:1"
       d="M 423.0332 340.89648 C 423.0332 340.89648 431.56686 362.29731 431.89648 364.04297 C 431.71543 366.86008 426.26986 374.05754 425.11914 373.50586 L 409.14258 346.27344 L 420.94922 376.16797 C 421.17509 377.7099 412.55261 382.38567 411.58789 381.86523 C 410.0633 381.18924 403.00391 364.71875 403.00391 364.71875 C 404.62075 371.0671 411.06445 385.80078 411.06445 385.80078 C 411.06445 385.80078 422.72721 382.11754 424.16016 383.10156 L 425.37695 385.64648 C 425.78027 385.43531 426.18744 385.23225 426.5957 385.03125 C 426.61257 385.01816 426.62958 385.00522 426.64648 384.99219 C 426.88535 384.21126 427.12143 383.42908 427.5332 382.73047 C 427.73293 382.3916 428.09013 382.19249 428.43945 381.98633 C 428.46244 381.96344 428.50566 381.92527 428.52344 381.90625 C 428.5033 381.92781 428.48359 381.94961 428.46289 381.9707 C 428.4773 381.96216 428.49153 381.95393 428.50586 381.94531 C 428.75122 381.59563 428.91839 381.34811 428.75781 381.58984 C 428.68166 381.70449 428.60208 381.81713 428.52539 381.93164 C 428.63092 381.86773 428.74275 381.80955 428.83789 381.73633 C 428.86399 381.71623 428.78016 381.76882 428.75586 381.79102 C 428.58462 381.94751 428.4335 382.13286 428.27344 382.30469 C 428.14695 382.48733 428.0094 382.66138 427.875 382.83789 C 427.7989 383.13096 427.72 383.42403 427.62695 383.71289 C 427.81987 383.4277 428.0126 383.14291 428.20508 382.85742 C 428.36035 382.62002 428.51669 382.38335 428.66602 382.14258 C 428.64579 382.18685 428.62057 382.22943 428.59961 382.27344 C 428.61201 382.25534 428.65558 382.20656 428.64648 382.22656 C 428.45462 382.64907 428.11916 383.46908 427.83398 384.14453 C 427.93311 384.07919 428.03132 384.01287 428.12891 383.94531 C 428.46478 383.7128 428.79138 383.46926 429.12695 383.23633 C 429.36786 383.08418 429.61776 382.94493 429.84961 382.7793 C 429.87181 382.7635 429.79458 382.77334 429.76758 382.77734 C 429.74418 382.78034 429.68567 382.81858 429.70117 382.80078 C 429.74314 382.75247 429.78949 382.7081 429.83398 382.66211 L 427.90039 379.20117 C 427.84737 377.99878 434.57813 365.53906 434.57812 365.53906 C 434.57813 365.53906 428.89174 350.5728 423.0332 340.89648 z M 428.20508 382.85742 C 427.99462 383.1792 427.78759 383.50259 427.61133 383.84375 C 427.54897 383.96447 427.51099 384.15686 427.48438 384.35352 C 427.49937 384.3526 427.51433 384.35106 427.5293 384.34961 C 427.55159 384.33484 427.57337 384.3194 427.5957 384.30469 C 427.88034 383.61188 428.27179 382.95648 428.5957 382.27734 C 428.4639 382.46973 428.33545 382.66405 428.20508 382.85742 z M 427.875 382.83789 C 427.88147 382.81299 427.89027 382.78863 427.89648 382.76367 C 427.83224 382.84665 427.74432 382.97683 427.69531 383.0332 C 427.64703 383.08873 427.68574 382.9919 427.74023 382.87305 C 427.55038 383.17338 427.38185 383.45882 427.52148 383.29688 C 427.64753 383.15068 427.75805 382.99149 427.875 382.83789 z M 427.89648 382.76367 C 427.97461 382.66277 428.05242 382.55637 428.14062 382.43555 C 428.07808 382.49525 428.01091 382.54797 427.94141 382.59766 C 427.92894 382.65357 427.91033 382.7081 427.89648 382.76367 z M 428.14062 382.43555 C 428.18562 382.3926 428.23056 382.35071 428.27344 382.30469 C 428.3589 382.18128 428.44186 382.05636 428.52539 381.93164 C 428.51857 381.93577 428.5127 381.9412 428.50586 381.94531 C 428.38638 382.11558 428.2779 382.24758 428.14062 382.43555 z M 428.16016 383.22656 C 428.16916 383.20726 428.12523 383.25258 428.11523 383.27148 C 427.9389 383.60443 427.78213 383.94847 427.61914 384.28906 C 427.63137 384.28102 427.64402 384.27366 427.65625 384.26562 C 427.82423 383.91925 427.99425 383.57396 428.16016 383.22656 z M 427.53125 383.8457 C 427.52085 383.8641 427.4881 383.91789 427.5 383.90039 C 427.50741 383.88949 427.51408 383.8781 427.52148 383.86719 L 427.53125 383.8457 z "
       id="path4141-0" />
    <path
       style="fill:#000000;fill-opacity:1;fill-rule:evenodd;stroke:none;stroke-width:1px;stroke-linecap:butt;stroke-linejoin:miter;stroke-opacity:1"
       d="M 282.02148 123.32812 C 281.95609 123.35819 281.8915 123.38976 281.82617 123.41992 C 281.81681 123.43008 281.80822 123.44105 281.79883 123.45117 C 281.87661 123.41724 281.95334 123.38114 282.03125 123.34766 L 282.02148 123.32812 z M 281.79883 123.45117 C 281.7245 123.4836 281.65007 123.51547 281.57617 123.54883 C 281.56198 123.55576 281.5493 123.56526 281.53516 123.57227 C 281.60427 123.55526 281.66937 123.53132 281.73828 123.51367 C 281.75818 123.49265 281.77913 123.47239 281.79883 123.45117 z M 281.73828 123.51367 C 281.72058 123.53237 281.70344 123.55181 281.68555 123.57031 C 281.75356 123.55178 281.68343 123.57241 281.75586 123.55273 C 281.83463 123.51569 281.94012 123.46281 281.99414 123.43945 C 282.00147 123.4338 282.00568 123.42906 282.01562 123.42188 C 281.92582 123.45664 281.83383 123.4892 281.73828 123.51367 z M 282.01562 123.42188 C 282.03006 123.41629 282.04636 123.41422 282.06055 123.4082 L 282.05273 123.39258 C 282.03168 123.40726 282.03258 123.40961 282.01562 123.42188 z M 281.75586 123.55273 C 281.7243 123.56758 281.69396 123.58157 281.66016 123.59766 C 281.65117 123.60684 281.64186 123.61587 281.63281 123.625 C 281.63524 123.62415 281.64583 123.62201 281.64844 123.62109 C 281.68752 123.59544 281.72754 123.57258 281.76758 123.54883 C 281.75512 123.55221 281.76818 123.54939 281.75586 123.55273 z M 281.64844 123.62109 C 281.64083 123.62609 281.63262 123.6298 281.625 123.63477 L 281.62109 123.63867 C 281.75641 123.59382 281.8424 123.56388 281.99414 123.51758 C 282.02414 123.50858 281.9383 123.54579 281.9082 123.55469 C 281.83548 123.57609 281.70277 123.62883 281.5918 123.66992 C 281.581 123.68056 281.57144 123.69259 281.56055 123.70312 C 281.51615 123.74613 281.12471 123.96862 281.07422 123.99805 C 280.38918 124.42589 280.80148 124.16187 279.84961 124.80859 C 279.56044 124.99143 278.75501 125.45491 278.39844 125.61914 C 278.12368 125.74569 277.85545 125.90668 277.55859 125.96484 C 277.47224 125.98176 277.3841 125.98181 277.29688 125.99219 L 280.00977 130.8457 C 280.06279 132.04809 273.33203 144.50586 273.33203 144.50586 C 273.33203 144.50586 279.01841 159.47212 284.87695 169.14844 C 284.87695 169.14844 276.34329 147.74761 276.01367 146.00195 C 276.19472 143.18484 281.6403 135.98738 282.79102 136.53906 L 297.32031 161.30664 C 295.75774 157.31084 292.80607 149.53085 286.96094 133.87695 C 286.73507 132.33502 295.35755 127.6612 296.32227 128.18164 C 297.84686 128.85763 304.90625 145.32617 304.90625 145.32617 C 303.28941 138.97782 296.8457 124.24414 296.8457 124.24414 C 296.8457 124.24414 285.18295 127.92738 283.75 126.94336 L 282.08789 123.4668 C 281.82666 123.55869 281.72417 123.5946 281.64844 123.62109 z M 297.32031 161.30664 C 299.96905 168.08 298.41419 163.41106 298.60742 163.5 L 297.32031 161.30664 z M 281.625 123.63477 C 281.62793 123.63183 281.62989 123.62794 281.63281 123.625 C 281.61115 123.63258 281.50601 123.67102 281.49805 123.67383 C 281.55791 123.64514 281.60289 123.62491 281.66016 123.59766 C 281.66884 123.58879 281.67692 123.57923 281.68555 123.57031 C 281.40275 123.64737 281.6051 123.59042 281.39453 123.64844 C 281.25156 123.72369 281.10391 123.79119 280.9707 123.88281 C 281.03728 123.86502 281.10765 123.84605 281.21094 123.80859 C 281.29437 123.76953 281.36528 123.73723 281.46094 123.69141 C 281.49971 123.67837 281.55848 123.6588 281.61328 123.64062 C 281.61696 123.63826 281.62133 123.63716 281.625 123.63477 z M 281.21094 123.80859 C 280.98197 123.91581 280.8273 123.98052 280.96875 123.88281 C 280.93515 123.89174 280.895 123.90559 280.87695 123.90625 C 280.81939 123.93885 280.75758 123.96342 280.70117 123.99805 C 280.48085 124.1333 281.1972 123.84817 281.43555 123.74805 C 281.46846 123.73422 281.49637 123.71103 281.52734 123.69336 C 281.41303 123.73612 281.31982 123.76911 281.21094 123.80859 z M 279.04492 124.66992 C 278.95016 124.72019 278.87971 124.75982 278.76367 124.82031 C 279.12854 125.387 279.15386 124.99032 279.19727 124.71094 C 279.16142 124.79061 279.12605 124.85538 279.10156 124.80273 C 279.08126 124.7591 279.065 124.71366 279.04492 124.66992 z M 277.98828 125.01758 C 277.90459 125.02982 277.8088 125.04334 277.75781 125.05469 C 277.73174 125.06049 277.70576 125.06645 277.67969 125.07227 C 277.74916 125.10443 277.86738 125.05963 277.98828 125.01758 z "
       id="path4141-0-2" />
    <path
       style="fill:#000000;fill-opacity:1;fill-rule:evenodd;stroke:none;stroke-width:1px;stroke-linecap:butt;stroke-linejoin:miter;stroke-opacity:1"
       d="M 478.125 229.06641 C 478.125 229.06641 469.601 233.10115 463.21484 238.125 C 463.21484 238.125 475.56518 231.91172 476.42578 231.81055 C 477.52886 232.43659 478.34962 239.55162 477.6582 240.74219 L 459.89062 254.31445 L 477.09961 245.76172 C 477.83361 245.74463 476.32651 255.99696 475.72266 256.98633 C 474.82952 258.57202 465.12695 263.89844 465.12695 263.89844 C 468.42425 263.06762 477.15625 258.1582 477.15625 258.1582 C 477.15625 258.1582 480.29435 244.69161 481.2793 243.25391 L 484.60742 241.1875 C 484.60931 241.04939 484.59735 240.93532 484.60352 240.62891 C 484.60527 240.60956 484.68635 239.7333 484.74609 239.46289 C 484.74483 239.28366 484.74298 239.35147 484.74219 238.90625 C 484.74509 238.63328 484.72384 238.33725 484.75977 238.06445 C 484.69819 237.58819 484.66908 237.39411 484.67969 236.75 C 484.6846 236.45056 484.70422 236.18404 484.72656 235.91602 L 481.15039 238.52344 C 480.62736 238.40047 478.125 229.06641 478.125 229.06641 z "
       id="path4141-0-3" />
    <path
       style="fill:#000000;fill-opacity:1;fill-rule:evenodd;stroke:none;stroke-width:1px;stroke-linecap:butt;stroke-linejoin:miter;stroke-opacity:1"
       d="M 255.74805 348.94336 L 245.07617 370.84961 C 244.51219 371.71185 242.47381 367.82366 242.63281 366.91211 C 242.82972 365.53848 248.68945 353.08398 248.68945 353.08398 C 246.3917 357.1137 241.1543 368.3457 241.1543 368.3457 C 241.1543 368.3457 242.93159 374.80747 242.61719 376.25781 L 241.13672 379.5625 C 241.27957 379.65428 241.42227 379.74607 241.5625 379.8418 C 241.71718 379.94739 241.87384 380.05223 242.01953 380.16992 C 242.18212 380.30125 242.33058 380.4485 242.48633 380.58789 C 242.54693 380.65376 242.60363 380.72316 242.66211 380.79102 L 244.19727 377.08789 C 244.64141 376.5015 249.5 375.50977 249.5 375.50977 C 249.5 375.50977 254.85192 364.70211 258.23438 356.18945 C 258.23437 356.18945 250.5968 371.92535 249.96094 372.95312 C 248.90957 374.11381 246.04695 373.60065 246.21094 372.54492 L 255.74805 348.94336 z "
       id="path4141-0-3-2" />
  </g>
</svg>
